<svg width="67" height="52" viewBox="0 0 67 52" fill="none" xmlns="http://www.w3.org/2000/svg">
<path d="M65.1129 41.72H63.9952V3.57508C63.9952 1.60375 62.3908 0 60.4189 0H15.538C15.0035 0 14.5701 0.433269 14.5701 0.967982C14.5701 1.5027 15.0035 1.93596 15.538 1.93596H60.4189C61.3233 1.93596 62.0593 2.67124 62.0593 3.57508V41.72H4.02164V3.57508C4.02164 2.67124 4.75757 1.93596 5.66205 1.93596H11.0131C11.5476 1.93596 11.981 1.5027 11.981 0.967982C11.981 0.433269 11.5476 0 11.0131 0H5.66205C3.69008 0 2.08568 1.60375 2.08568 3.57508V41.72H0.967982C0.433398 41.72 0 42.1533 0 42.688V47.9035C0 50.1624 1.83775 52 4.0965 52H8.84736C9.38194 52 9.81534 51.5667 9.81534 51.032C9.81534 50.4973 9.38194 50.064 8.84736 50.064H4.0965C2.90524 50.064 1.93596 49.0948 1.93596 47.9035V43.656H25.8099L26.3296 45.3192C26.7986 46.8199 28.1701 47.8281 29.7423 47.8281H36.3383C37.9106 47.8281 39.282 46.8199 39.751 45.3192L40.2708 43.656H64.1449V47.9035C64.1449 49.0948 63.1757 50.064 61.9844 50.064H13.3775C12.8429 50.064 12.4095 50.4973 12.4095 51.032C12.4095 51.5667 12.8429 52 13.3775 52H61.9844C64.2432 52 66.0809 50.1624 66.0809 47.9035V42.688C66.0809 42.1533 65.6475 41.72 65.1129 41.72ZM37.9033 44.7417C37.6883 45.4299 37.0594 45.8922 36.3384 45.8922H29.7425C29.0215 45.8922 28.3926 45.4299 28.1776 44.7417L27.8383 43.656H38.2426L37.9033 44.7417Z" fill="#AE7C78"/>
</svg>
